<?xml version="1.0" encoding="UTF-8"?>
<svg id="Layer_1" data-name="Layer 1" xmlns="http://www.w3.org/2000/svg" viewBox="0 0 778.68 105.67">
  <defs>
    <style>
      .cls-1 {
        fill: #949494;
        stroke-width: 0px;
      }
    </style>
  </defs>
  <path class="cls-1" d="M446.37.25c29.5-3.15,53.09,23.48,53,51.88-.09,29.73-23.45,53.63-54.15,53.39-29.14-.23-52.85-24.48-52.85-53.75,0-24.64,21.43-54.87,54-51.52Z"/>
  <path class="cls-1" d="M563.82,52.55c4.87-8.47,9.68-16.96,14.61-25.4,4.94-8.46,9.99-16.86,15.06-25.39h19.57v101.01h-19.93v-60.98c-.26-.03-.52-.06-.78-.09-7.59,13.38-15.17,26.75-22.81,40.21h-12.85c-7.75-13.56-15.39-26.92-23.56-41.22v61.91h-19.98V1.92h19.67c9.66,16.63,19.55,33.65,29.44,50.68.52-.02,1.04-.03,1.56-.05Z"/>
  <path class="cls-1" d="M53.88.25c19.1-1.55,33.84,7.06,44.11,22.99,11.77,18.24,11.57,37.23,1.05,56.23-12.19,22.04-39.91,31.3-63.5,23.13-17.46-6.04-29.6-17.97-33.57-35.35C-4.02,41.02,3.03,16.34,31.84,3.22,38.91,0,46.07.37,53.88.25ZM21.57,51.37c0,1.7.02,2.53,0,3.37-.27,11.13,4.55,19.19,13.86,25.37,6.39,4.24,13.1,4.16,20.09,4.25,11.45.15,19.62-5.09,25.42-14.72,4.1-6.8,3.91-14.11,3.77-21.69-.41-22.85-28.41-36.3-48.35-24.12-10.58,6.47-15.96,15.75-14.79,27.53Z"/>
  <path class="cls-1" d="M176,.7h19.94c.24,2.33.63,4.41.63,6.48.04,19.65.23,39.3-.05,58.95-.18,12.19-5.79,22.04-15.18,29.6-14.39,11.6-39.59,8.88-50.27-.92-6.41-5.89-10.7-12.93-12.3-21.17-1.5-7.75-1.93-15.79-2.11-23.71-.32-14.15-.1-28.31-.07-42.46,0-1.97.21-3.93.36-6.54h20.94c.23,2.05.65,4.11.65,6.18.05,18.65-.02,37.3.06,55.95.04,10.05,3.79,15.64,12.37,19,11.43,4.47,24.41-3.97,24.53-16.27.2-19.31.05-38.63.09-57.95,0-2.12.24-4.25.41-7.14Z"/>
  <path class="cls-1" d="M775.21,21.32c-4.45,4.65-10.95,5.3-16.46,7.74-.69-.52-1.29-.73-1.45-1.12-3.65-9.04-11.26-9.64-19.13-8.3-2.65.45-5.83,2.86-7.08,5.25-1.67,3.19-.57,7.12,2.71,9.3,3.01,1.99,6.38,3.52,9.76,4.84,10.03,3.93,20.68,6.64,28.29,15.07,4.26,4.71,7.24,9.96,6.78,16.61-.06.83,0,1.67,0,2.5.02,18.61-12.45,31.17-31.28,32.19-17.09.92-29.6-6.11-38.07-20.66-1.55-2.65-2.35-5.74-3.77-9.34,6.4-2.64,12.25-5.06,18.52-7.65,1.53,2.65,2.73,4.58,3.78,6.59,4.95,9.45,13.67,12.99,23.58,9.34,3.05-1.12,5.8-2.91,6.04-6.61.27-4.14,1.02-8.79-3.57-11.11-6.79-3.43-13.74-6.61-20.79-9.47-9.94-4.03-18.14-9.66-22.11-20.2-5.88-15.6,6.93-35.27,23.66-35.97,5.65-.24,11.33-.03,16.99-.04,8.04-.02,22.37,10.19,23.62,21.02Z"/>
  <path class="cls-1" d="M369.66,72.34c5.14,4.62,9.61,8.65,14.85,13.36-3.61,3.63-6.26,7.09-9.63,9.54-14.89,10.84-31.32,13.05-48.75,7.46-17.85-5.72-29.43-18-34.42-35.81-7.11-25.37,4.65-52.64,29.9-63.63,8.78-3.82,17.62-2.46,26.5-3.04,6.67-.43,12.89.84,18.75,4.04,5.57,3.04,10.66,6.62,14.92,12.63-4.76,4.52-9.34,8.87-14.2,13.49-8.95-8.01-18.48-12.9-30.01-10.78-7.47,1.37-14.18,4.85-19.36,10.65-9.59,10.74-10.16,31.43-.7,43.17,6.54,8.12,15.39,10.96,26.01,11.19,10.74.23,18.27-4.8,26.12-12.28Z"/>
  <path class="cls-1" d="M283.07,1.87v19.28h-27.51v81.84c-6.95,0-12.85.18-18.72-.16-1.09-.06-2.4-2.09-2.97-3.48-.54-1.3-.29-2.95-.29-4.44-.01-21.47-.02-42.94,0-64.41,0-2.64.23-5.27.41-9.02h-26.78V1.87h75.84Z"/>
  <path class="cls-1" d="M632.03,102.02v-17.04c3.81-1.93,57.23-2.57,64.9-.81v17.66c-4.1,1.9-58.97,2.19-64.9.2Z"/>
  <path class="cls-1" d="M697.02,1.4v19.35h-64.36c-1.91-6.12-1.12-12.09-.48-19.05,21.59-.76,42.84-.31,64.85-.3Z"/>
  <path class="cls-1" d="M677.12,42.56v18.09c-3.94,2.01-38.28,2.49-44.14.8-2.41-5.11-1.97-15.7.48-18.89h43.65Z"/>
</svg>