<?xml version="1.0" encoding="utf-8"?>
<!-- Generator: Adobe Illustrator 28.4.1, SVG Export Plug-In . SVG Version: 6.00 Build 0)  -->
<svg version="1.1" id="Layer_1" xmlns="http://www.w3.org/2000/svg" xmlns:xlink="http://www.w3.org/1999/xlink" x="0px" y="0px"
	 viewBox="0 0 1920 1080" style="enable-background:new 0 0 1920 1080;" xml:space="preserve">
<g>
	<path d="M867.3,1032.9c-140.6,0-281.2,0-421.8,0c-34.6,0-61.2-19.1-70.5-50.7c-1.9-6.4-3-13.3-3-20c-0.1-283.3-0.1-566.6-0.1-849.9
		c0-38.8,29.9-69.7,68.6-71.1c2.5-0.1,5-0.1,7.4-0.1c280.6,0,561.2,0.1,841.8-0.1c28.1,0,49.7,10.7,64.8,34.3
		c6.9,10.9,10.3,23,10.3,36.1c0,283.6,0,567.2,0,850.8c0,38.1-30.1,69.4-68.1,70.5c-20.7,0.6-41.5,0.2-62.2,0.2
		C1111.9,1032.9,989.6,1032.9,867.3,1032.9z M907,887.3c0-5.2,0-9.2,0-13.2c0-78-0.3-156,0.3-234.1c0.1-15.6,2.2-31.5,5.7-46.7
		c6.5-29.1,22.5-51,53.1-58.4c10.4-2.5,21.4-3,32.1-2.9c35.3,0.5,56.3,17.3,65.6,51.4c5.2,19,6,38.4,6,57.9
		c0,77.4,0,154.8,0.1,232.2c0,4.5,0.6,9,0.9,13.8c50,0,98.7,0,148.5,0c0-4,0-7,0-10c0-91,0.2-182.1-0.1-273.1
		c-0.1-32.2-3.9-64.1-13-95.2c-15.4-52.3-47.6-88.1-101.6-101.8c-26.5-6.7-53.5-9-80.8-6.7c-50.5,4.4-89.4,28.1-118,69.5
		c-1,1.5-2.4,2.8-3.6,4.2c-0.5-0.2-1.1-0.4-1.6-0.6c0-20.3,0-40.5,0-61.1c-48,0-94.8,0-142.5,0c0,158.4,0,316.1,0,474.7
		C807.5,887.3,856.5,887.3,907,887.3z M518,412.5c0,158.9,0,316.6,0,474c11.9,3.2,141.8,2.3,148.1-0.8c0-157.7,0-315.3,0-473.2
		C616.3,412.5,567.6,412.5,518,412.5z M592.3,348.2c47.8,0,86-38.2,86.1-85.8c0-48-38.4-86.4-86.4-86.6c-49.7-0.2-87,42.5-86.1,86.9
		C506.8,310.4,544.4,348.3,592.3,348.2z"/>
	<path d="M1479.4,906.8c33.9-1.8,67.3,26.5,67.2,66.6c-0.1,42.3-36.1,66.9-67.5,66.9c-30.1,0-66.4-24.6-66.7-66.7
		C1412.2,933.6,1446.2,904.8,1479.4,906.8z M1418.5,973.2c0,33.5,27,60.8,60.5,61.2c33.5,0.4,61.7-27.5,61.6-61.1
		c-0.1-31.3-23.6-60-60.6-61.4C1446.8,910.8,1418.6,939.6,1418.5,973.2z"/>
	<path d="M1487.8,977.8c6.7,10.3,12.7,19.6,19.4,29.9c-3.7,0-6.2,0-8.8,0c-6.6-10.2-13.2-20.3-19.6-30.2c-4.6,0-8.5,0-13.6,0
		c0,10.3,0,20,0,30.2c-3.2,0-5.2,0-7.9,0c0-22.7,0-45.1,0-68.3c12.7,0,25-0.8,37.2,0.3c7.9,0.7,12.7,8.3,13.3,16.9
		c0.4,7.4-4,15.1-10.7,18.1C1494.4,975.7,1491.8,976.4,1487.8,977.8z M1465.6,971.1c8.8-0.8,17.1-0.9,25-2.3c6.7-1.2,7.7-7,7.4-13.1
		c-0.3-5.9-3.7-9.6-8.9-10.1c-7.8-0.8-15.7-0.2-23.5-0.2C1465.6,954.2,1465.6,961.8,1465.6,971.1z"/>
</g>
</svg>
