<?xml version="1.0" standalone="no"?>
<!DOCTYPE svg PUBLIC "-//W3C//DTD SVG 20010904//EN"
 "http://www.w3.org/TR/2001/REC-SVG-20010904/DTD/svg10.dtd">
<svg version="1.0" xmlns="http://www.w3.org/2000/svg"
 width="700.000000pt" height="700.000000pt" viewBox="0 0 700.000000 700.000000"
 preserveAspectRatio="xMidYMid meet">
<metadata>
Created by potrace 1.14, written by Peter Selinger 2001-2017
</metadata>
<g transform="translate(0.000000,700.000000) scale(0.100000,-0.100000)"
fill="#000000" stroke="none">
<path d="M51 3500 l0 -890 892 0 892 0 0 890 0 890 -892 0 -892 0 0 -890z"/>
<path d="M2038 4383 c-3 -7 -2 -1744 1 -1765 1 -3 44 19 96 50 53 31 108 64
123 73 15 9 101 60 192 115 91 54 174 104 185 110 11 6 247 147 525 314 278
167 514 308 525 314 11 6 99 59 195 116 96 58 183 110 192 115 10 6 51 30 90
54 40 24 246 147 458 274 212 126 387 231 389 233 2 2 -664 4 -1482 4 -817 0
-1487 -3 -1489 -7z"/>
<path d="M5375 4194 c110 -108 314 -308 453 -445 l253 -249 -253 -249 c-139
-137 -343 -337 -453 -445 l-200 -196 890 0 891 0 0 890 0 890 -891 0 -890 0
200 -196z"/>
</g>
</svg>
